<svg width="100" height="100" xmlns="http://www.w3.org/2000/svg">
    <path d="M19.088 59.721c.98.609 1.612 1.208 2.56 1.967l7.685 7.076c1.603 1.515 5.707 5.63 7.284 7.453 1.077 1.244 1.544 1.377 2.336 2.604-.29.107-3.88.925-5.968 1.638-4.347 1.485-8.306 3.864-12.092 2.59-.566-.19-3.143-2.634-4.325-3.461-.7-.49-1.365-.95-2.17-1.51-2.304-1.598-2.964-.497.096-7.577.8-1.852 1.478-3.52 2.24-5.334.665-1.585 1.582-4.148 2.354-5.446zm55.21-42.746c1.581.546 5.413 2.72 6.352 3.89.791.984.562 1.074.27 2.493l-1.56 12.108c-2.158.079-1.535-.177-2.873-1.068-2.244-1.495-9.945-7.143-12.417-9.122l-4.755-3.794c.35-.326-.121-.155.67-.36l7.04-1.575c3.666-.913 4.234-1.152 7.272-2.572zm-63.102 2.437c1.612-.898 2.471-.216 5.192-2.172.729-.524 2.406-.472 3.424-.333 1.056.143 3.486 2.155 4.6 2.835.645.393 3.546 2.592 4.019 3.353l1.432 2.296c1.974.097 1.627-.017 4.118 1.792l23.838 15.62c5.126 3.536 11.107 7.149 16.262 10.713l14.693 9.548c-.424.905-.92 4.029-1.198 5.277-1.273 5.735-2.873 8.165-5.464 13.68-3.723.145-6.661.117-10.3.06-1.177-.02-.887.226-1.531-.394-2.13-2.049-6.004-6.547-8.158-8.62a62.842 62.842 0 0 1-2.15-2.17c-5.955-6.3-3.136-4.401-4.301-5.97L43.689 53.681c-2.751-2.656-5.23-5.516-8.074-8.508-.73-.768-1.097-1.493-1.859-2.19l-.21-.189c-.204-.198-.126-.116-.315-.331l-3.481-3.929c-.613-.563-.555-.544-1.005-1.05l-3.13-3.208c-.689-.717-1.226-1.459-1.88-2.232l-2.993-3.151c-.445-.449-.768-.583-1.206-1.037-1.423-1.47-2.62-2.879-4.057-4.348-1.151-1.176-3.952-3.437-4.283-4.096zm14.37-17.571L.974 2.343C-.353 7.203.965 4.743.97 9.817l-.005 9.187c-.2 2.654-.905 4.006-.903 7.554 0 1.195-.266 3.934.313 4.87 1.024 1.657.998 3.06 1.43 5.453.383 2.126.8 1.903-.165 3.506l-.45 4.063 2.101 2.041.016 3.568c-1.251 1.139.149.328-2.497 2.223l.237 10.778 2.605 1.877-.545 9.188C.359 76.08.95 78.451 1.037 80.886l.336 9.163-.603 4.696c6.156 1.537 4.806 1.06 11.843 1.06 6.218 0 5.415.063 11.561-.678l.159 1.04c.952-.061 1.936-.113 2.875-.203 2.616-.253 1.57-.553 2.471-.877.651-.234 7.66 1.381 8.798 1.625.629-.698.309-.416 1.186-.98.474.995 2.501 3.276 3.327 4.268l2.538-2.365 4.44 1.71 1.301-1.086c.507.596.816 1.344 1.721 1.462 1.319.171 1.534-1.997 4.443-2.052l16.865-.559c.217-.207.346-.33.578-.556l.862-.696c1.108.663 1.58 1.3 3.1 1.2 4.652-.305 2.217 1.119 8.22.798 1.035-.055.779-.307 1.691-.627l1.95-.298c-.424-1.128-.696-.969-1.538-1.812l10.684 2.145c-.143-12.485-.116-27.72.043-40.565l-2.872.213c.104-.833 1.356-.52 1.454-2.196.124-2.113.102-9.347-.208-10.893-.158-.79-2.185-3.094-2.726-3.811.644-1.74.708-1.624 1.902-3.042-.101-.934-.321-1.183-.725-2.246l3.131-1.019c.035-1.788.237-8.962.12-11.23l-1.269-12.25.97-3.062.041-3.147c-2.704-1.548-2.35-1.719-4.229-1.706-1.684.012-3.955-.077-5.57-.445-2.074-.471-1.518-.806-3.791 1.512l-1.032-2.231C81.838.907 71.428.004 68.952.004c-3.164 0-2.706.236-3.775 3.804l-4.542.464-.605-1.951-4.116-.047.436-.477c.805-.761.523-.454 1.153-1.797L40.948.002c-.547 1.004-1.547 1.769-2.726 2.157-1.649.544-.833-.332-1.874.595-.78.695-.915.651-2.145.627a235.653 235.653 0 0 1-4.935-.152c-.752-.03-1.58.044-2.303-.125-1.113-.261-.79-.548-1.398-1.263z" fill="#D43B3B"/>
</svg>
