<svg xmlns="http://www.w3.org/2000/svg" viewBox="0 0 24 24" fill="#fff">
    <path d="M19.398 13c0-.3.102-.7.102-1 0-.3 0-.7-.102-1L21.5 9.5c.2-.102.3-.398.102-.7l-2-3.5C19.5 5 19.199 4.899 19 5l-2.398 1.102c-.5-.403-1.204-.801-1.801-1L14.5 2.5c0-.3-.2-.5-.5-.5h-4c-.3 0-.5.2-.5.5L9.2 5c-.7.3-1.302.602-1.802 1L5 5c-.2-.102-.5 0-.602.2l-2 3.5c-.199.3-.199.6.102.698L4.602 11c0 .3-.102.7-.102 1 0 .3 0 .7.102 1L2.5 14.5c-.2.102-.3.398-.102.7l2 3.5c.102.3.403.402.602.3l2.398-1.102c.5.403 1.204.801 1.801 1L9.5 21.5c0 .3.2.5.5.5h4c.3 0 .5-.2.5-.5l.3-2.602c.7-.296 1.302-.597 1.802-1L19 19c.2.102.5 0 .602-.2l2-3.5c.097-.198.097-.5-.102-.698zM12 16c-2.2 0-4-1.8-4-4s1.8-4 4-4 4 1.8 4 4-1.8 4-4 4z"/>
</svg>
