<svg xmlns="http://www.w3.org/2000/svg" width="331" height="331" viewBox="0 0 331 331"><g fill="none" fill-rule="evenodd"><path fill="#EF6660" d="M330.293 165.693c0 91.277-73.994 165.27-165.271 165.27C73.746 330.964-.25 256.97-.25 165.694-.25 74.416 73.746.422 165.02.422c91.278 0 165.272 73.994 165.272 165.27"/><path fill="#FFF" d="M102.05 241.964l-4.716 7.81-1.674-2.586 4.717-7.861-1.268-1.926-4.767 7.86-1.724-2.587 4.766-7.91-1.267-1.928-4.767 7.91-1.724-2.585 4.818-7.911-3.804-5.781a261.1 261.1 0 0 0 5.477-10.65l.761-1.622 1.065 1.775 9.634 16.126a607.886 607.886 0 0 0 8.063 13.033l1.42 2.23c.743-2.704 1.42-5.357 2.03-7.96a459.715 459.715 0 0 0 2.687-12.222c1.318-6.288 2.197-11.037 2.636-14.25h10.092l-.609 1.674a579.164 579.164 0 0 0-7.91 24.645c-2.503 8.655-4.582 16.43-6.238 23.327l-3.702 15.366-.355 1.52-5.07-7.707 4.614-7.708-1.268-1.928-4.666 7.709-1.673-2.587 4.615-7.708-1.268-1.926-4.665 7.708-1.674-2.586 4.665-7.76-1.318-1.927-4.665 7.759-1.674-2.586 4.666-7.76-1.268-1.976-4.716 7.809-1.724-2.587 4.716-7.808-1.268-1.928zM67.465 280.86H60.67l-.355-1.725a647.473 647.473 0 0 0-6.44-28.398 618.874 618.874 0 0 0-1.85-7.252 791.534 791.534 0 0 0-1.573-5.832 278.595 278.595 0 0 0-1.75-6.135c-1.048-3.516-2.383-7.725-4.006-12.627l-.558-1.674h4.818l14.452 53.855h8.824l-.862 1.674a310.445 310.445 0 0 0-3.093 6.389l-.812 1.725zm4.26-16.786H63.56l-.76-2.79h8.215l-.507-2.13h-8.266l-.76-2.788h8.367l-.507-2.08h-8.418l-.76-2.788h8.468l-.508-2.13h-8.519l-.76-2.79h8.57l-.508-2.078h-8.62l-.76-2.79h8.721l-.558-2.13h-8.722l-.76-2.788h8.823l-.507-2.08H55.65l-.71-2.788h8.874l-.507-2.13h-8.976l-.71-2.79h9.027l-.508-2.078h-9.077l-.76-2.79h9.128l-.507-2.13h-9.179l-.76-2.79h9.23l-.509-2.078H43.327c-.169-.61-.27-.945-.304-1.014l-.76-2.231c-.034-.068-.136-.39-.305-.964H70.61l.305 1.724c.101.507.583 2.798 1.445 6.872.862 4.074 1.496 7.048 1.901 8.925.406 1.876 1.133 5.063 2.181 9.559a256.63 256.63 0 0 0 2.181 8.316c.202-.303.413-.65.634-1.04.22-.387.456-.793.71-1.217.253-.421.548-.937.887-1.545.17-.305.405-.736.71-1.294.304-.558.693-1.225 1.166-2.003.676-1.217 1.2-2.163 1.572-2.84l4.057-7.607.507-.887.71-1.242 2.333 3.702-4.767 7.86 28.297 42.648h-7.049c-1.86-3.855-4.209-8.081-7.049-12.678-.373-.61-1.742-2.822-4.107-6.644a614.282 614.282 0 0 0-5.579-8.772 579.227 579.227 0 0 0-4.31-6.542l-.862-1.217a58.076 58.076 0 0 0-2.18 3.55c-1.252 2.164-2.723 4.868-4.413 8.113l-5.527 10.397-1.014 1.876H64.88l-.76-2.79h8.113l-.507-2.08zm75.919 2.079h3.499v-2.079h-5.325l-.253-.305c-.643-.845-1.15-1.57-1.522-2.18l-.202-.304h7.302v-2.13h-8.418a27.703 27.703 0 0 1-1.217-2.789h9.635v-2.079h-10.345a33.46 33.46 0 0 1-.71-2.486l-.051-.303h11.106v-2.13h-11.511a21.033 21.033 0 0 1-.254-2.789h11.765V244.5h-11.765c.067-.947.135-1.792.203-2.536l.05-.253h11.512v-2.13h-11.106c.203-.913.422-1.725.66-2.435l.1-.354h10.346v-2.079h-9.584c.168-.44.54-1.269 1.115-2.486l.152-.303h8.317v-2.13h-7.15a41.127 41.127 0 0 1 1.927-2.789h5.223v-2.08h-3.347c.81-.844 1.927-1.808 3.347-2.89v-2.028h-7.708c7.775-7 16.75-10.499 26.927-10.499 5.376 0 10.396.897 15.06 2.69 4.666 1.791 8.766 4.351 12.298 7.682 3.533 3.33 6.255 7.167 8.165 11.51 1.909 4.345 2.865 9.07 2.865 14.174 0 8.723-2.924 16.516-8.773 23.378h-15.314v-2.789h6.288c.27-.507.625-1.2 1.065-2.079h-7.353v-2.789h8.468c.135-.372.245-.693.329-.964.084-.27.16-.54.229-.812l.1-.354h-9.126v-2.789h9.837c.034-.236.077-.482.127-.735.05-.254.11-.583.178-.99l.05-.354h-10.192v-2.789h10.598v-.305c.102-.81.153-1.42.153-1.825h-10.751v-2.789h10.902V244.5h-10.902v-2.789h10.8c0-.237-.007-.449-.024-.634-.018-.186-.06-.516-.127-.989l-.051-.507h-10.598v-2.789h10.243l-.05-.356c0-.135-.068-.574-.203-1.318l-.102-.405h-9.888v-2.789h9.28c-.07-.27-.102-.389-.102-.356l-.456-1.42c0 .034-.034-.084-.101-.354h-8.621v-2.789h7.504a14.127 14.127 0 0 0-1.115-2.08h-6.39v-2.79h4.463c-.744-.912-1.403-1.622-1.978-2.128h-2.484v-1.877c-1.961-1.352-4.286-2.392-6.973-3.119a31.083 31.083 0 0 0-8.14-1.09c-2.062 0-4.242.253-6.541.76v59.89c-5.545-.913-10.666-3.719-15.365-8.418zm34.889 4.92h15.162c-2.401 2.365-5.003 4.327-7.81 5.882-2.805 1.554-5.84 2.73-9.101 3.524-3.264.794-6.687 1.192-10.27 1.192-5.038 0-9.78-.83-14.224-2.486a36.22 36.22 0 0 1-11.892-7.25c-3.72-3.416-6.617-7.464-8.696-12.146-2.08-4.682-3.12-9.424-3.12-14.225 0-4.19.736-8.265 2.207-12.22 1.47-3.957 3.659-7.692 6.567-11.209h6.592c-3.448 3.043-6.094 6.62-7.936 10.726a31.182 31.182 0 0 0-2.764 12.906c0 2.807.422 5.63 1.268 8.47a31.321 31.321 0 0 0 3.65 7.985 36.03 36.03 0 0 0 5.73 6.872c6.019 5.41 13.422 8.114 22.213 8.114 2.637 0 5.39-.253 8.265-.76V217.42a15.315 15.315 0 0 1 4.159 1.877v51.775zm42.243-51.066c7.843-6.965 16.971-10.447 27.384-10.447 9.702 0 18.577 2.94 26.623 8.824l-3.347 7.505c-3.178-3.617-6.99-6.39-11.435-8.317-4.446-1.926-9.339-2.89-14.68-2.89-1.657 0-3.315.152-4.97.456v58.876c-2.84-.44-5.647-1.377-8.419-2.815-2.772-1.436-5.02-3.12-6.744-5.046h3.296v-2.08h-5.273l-.204-.303c-.304-.406-.829-1.132-1.572-2.181l-.152-.304h7.201v-2.13h-8.418a27.703 27.703 0 0 1-1.217-2.79h9.635v-2.078H222.14a34.058 34.058 0 0 1-.71-2.485l-.05-.304h11.105v-2.13h-11.51a21.36 21.36 0 0 1-.255-2.79h11.765V244.5H220.72c.068-.946.135-1.792.203-2.536l.051-.253h11.511v-2.13H221.38a24.35 24.35 0 0 1 .66-2.434l.1-.355h10.345v-2.08H222.9c.17-.438.54-1.267 1.115-2.484l.153-.304h8.316v-2.13h-7.15a41.493 41.493 0 0 1 1.927-2.79h5.223v-2.078h-3.347c.812-.845 1.927-1.81 3.347-2.891v-2.028h-7.708zm53.754 52.739a40.26 40.26 0 0 1-5.553 3.65 42.081 42.081 0 0 1-6.389 2.815 44.292 44.292 0 0 1-7.176 1.826 44.768 44.768 0 0 1-7.455.634c-8.418 0-15.89-2.231-22.414-6.694-3.11-2.163-5.857-4.834-8.24-8.012-2.384-3.178-4.21-6.593-5.477-10.244-1.268-3.651-1.902-7.37-1.902-11.156 0-4.192.736-8.266 2.206-12.221 1.47-3.956 3.66-7.691 6.567-11.208h6.593c-2.333 2.062-4.294 4.336-5.883 6.82a29.995 29.995 0 0 0-3.6 8.013 32.251 32.251 0 0 0-1.218 8.85c0 3.042.482 6.077 1.446 9.102a31.843 31.843 0 0 0 4.133 8.443 31.483 31.483 0 0 0 6.39 6.846c2.771 2.164 5.704 3.762 8.797 4.792 3.094 1.032 6.466 1.547 10.117 1.547 2.637 0 5.088-.23 7.354-.685a33.196 33.196 0 0 0 6.49-2.003c2.063-.878 4.107-2.02 6.137-3.422a41.844 41.844 0 0 0 5.78-4.843l3.297 7.15z"/><path fill="#F49399" d="M82.61 128.153a11.26 11.26 0 0 0-5.491 1.427c.48-1.482.742-3.063.742-4.706 0-8.43-6.834-15.263-15.264-15.263-7.713 0-14.087 5.723-15.116 13.153a15.181 15.181 0 0 0-8.411-2.527c-8.228 0-14.918 6.514-15.234 14.667-.7-.196-1.421-.334-2.183-.334a8.097 8.097 0 1 0 0 16.194H82.61c6.243 0 11.305-5.061 11.305-11.304 0-6.246-5.062-11.307-11.305-11.307m163.748 0c1.995 0 3.865.522 5.492 1.427a15.246 15.246 0 0 1-.742-4.706c0-8.43 6.834-15.263 15.264-15.263 7.713 0 14.087 5.723 15.116 13.153a15.181 15.181 0 0 1 8.411-2.527c8.228 0 14.918 6.514 15.234 14.667.7-.196 1.421-.334 2.183-.334a8.097 8.097 0 1 1 0 16.194h-60.958c-6.243 0-11.305-5.061-11.305-11.304 0-6.246 5.062-11.307 11.305-11.307M77.93 67.465c1.498 0 2.902.392 4.124 1.07a11.421 11.421 0 0 1-.557-3.532c0-6.33 5.13-11.46 11.459-11.46 5.792 0 10.577 4.297 11.35 9.876a11.397 11.397 0 0 1 6.315-1.898c6.178 0 11.2 4.892 11.437 11.013a6.002 6.002 0 0 1 1.639-.251 6.08 6.08 0 1 1 0 12.159H77.93a8.488 8.488 0 0 1 0-16.977"/><path fill="#384042" d="M144.795 186.89c15.482-22.865 9.363-13.921 35.529-24.797 5.51 48.877 54.245 53.144 59.269 38.468.61-1.875.858-3.031.858-3.031-27.001-4.003-22.976-35.145-20.352-66.316.595-2.368.937-4.744.959-7.1 0-.878-.138-1.714-.233-2.564 1.134-17.663.66-34.368-7.404-45.107-1.722-2.652-3.75-5.057-6.27-6.917-1.984-6.423-7.121-11.458-13.704-14.728-7.455-3.727-17.053-5.66-28.286-5.682-22.757-.11-44.432 13.42-51.458 35.465-25.613 62.095 22.75 106.01-24.108 112.949 0 0 1.552 3.844 3.899 5.615 0 0 28.78 17.982 51.3-16.254"/><path fill="#F3C180" d="M196.222 89.987c3.044 10.398 7.2 29.376 6.198 46.415l-.066.087c-1.518 12.265-4.977 21.529-12.14 28.766-14.547 14.372-15.732 13.973-24.56 14.06-.109 0-.138.022-.138.022h-.167c-8.82-.11-9.998.29-24.552-14.082-6.503-6.54-9.903-14.793-11.618-25.496 33.801-13.544 55.076-28.083 67.043-49.772"/><path fill="#013955" d="M118.128 51.66s27.836-22.104 43.526-22.528c15.689-.424 21.003 6.295 21.003 6.295l-64.53 16.234z"/><path fill="#176395" d="M114.653 92.2s38.86-6.737 92.16-23.094c-2.093-16.7-13.745-37.433-13.745-37.433s-47.675 5.103-89.06 22.78c4.08 25.964 10.645 37.748 10.645 37.748"/><path fill="#3ABFC8" d="M183.323 171.351c-10.795 11.976-33.08 4.003-36.748-.518-1.785 2.967-3.243 7.73.883 17.603 12.152 9.835 45.907 5.08 52.803-11.03 0-6.54-3.84-14.18-7.831-15.314-1.627 1.67-.674 1.048-8.023 8.132l-1.084 1.127z"/><path fill="#176395" d="M203.99 234.155c-24.61-8.523-32.833-30.227-26.378-49.183 24.134 8.054 33.093 24.262 26.379 49.183"/><path fill="#3ABFC8" d="M198.82 198.062s1.019 14.168-15.832 21.6c1.179 1.937 2.686 3.135 2.686 3.135s15.27-9.51 15.607-21.406c-1.02-2.352-2.461-3.33-2.461-3.33"/><path fill="#3ABFC8" d="M195.736 194.845s.825 12.372-16.026 19.804a206.022 206.022 0 0 0 2.254 3.614s15.663-9.273 16-21.17c-.977-1.571-2.228-2.248-2.228-2.248"/><path fill="#3ABFC8" d="M176.17 184.976c3.583.734 6.265-.246 8.89-.035 8.571.685 13.158.386 18.254-1.117 11.805-3.479 25.553 10.725 31.74 25.015-23.068 1.241-46.182-4.992-58.885-23.863"/><path fill="#176395" d="M203.236 204.982s6.19-8.84.079-21.157c1.195-.405 2.838-.531 2.838-.531s5.684 9.206 0 22.605c-1.836-.112-2.917-.917-2.917-.917"/><path fill="#176395" d="M208.679 206.578s6.112-10.87 0-23.189c1.428.01 2.767.567 2.767.567s5.619 9.844-.065 23.243c-1.836-.11-2.702-.62-2.702-.62"/><path fill="#E29E26" d="M155.41 62.268c-3.378 0-4.393-2.215-4.435-2.31l-.467-1.053 18.065-4.277.428 1.809-15.474 3.664c.44.187 1.017.32 1.776.32.678 0 1.438-.11 2.26-.326l11.52-2.726.427 1.808-11.5 2.722c-.923.244-1.802.369-2.6.369z"/><path fill="#E29E26" d="M168.945 54.026l-.973.23-16.993 4.024-1.17.276.486 1.102.223.503c.12.269 1.26 2.608 4.891 2.608.842 0 1.764-.131 2.74-.39l10.99-2.6.973-.23-.23-.974-.199-.836-.213-.9.133-.03-.23-.974-.199-.836-.23-.973zm-.743 1.203l.198.837-16.1 3.81c.447.448 1.352 1.047 3.002 1.047.669 0 1.459-.099 2.389-.345l11.02-2.609.198.836-11.015 2.607c-.955.253-1.777.356-2.484.356-3.043 0-3.932-1.912-3.976-2.01l-.224-.506 16.99-4.022z"/><path fill="#E29E26" d="M160.381 63.632c-2.712-.001-3.623-1.262-3.718-1.405l-.275-.416 1.314-.874.28.406c.001 0 .59.7 2.411.7.713 0 1.524-.106 2.41-.316l6.967-1.65.365 1.544-6.966 1.65c-1.01.239-1.949.36-2.787.36z"/><path fill="#E29E26" d="M170.141 59.475l-.973.23-6.48 1.534c-.849.201-1.622.303-2.295.303-1.419 0-1.954-.454-2.032-.529l-.532-.762-.815.543-.488.325-.827.551.546.83c.18.273 1.22 1.631 4.136 1.631.877 0 1.854-.126 2.903-.374l6.48-1.534.973-.23-.23-.973-.136-.572-.23-.973zm-.743 1.203l.136.572-6.48 1.534c-1.057.25-1.94.347-2.673.347-2.488 0-3.26-1.118-3.3-1.18l.488-.325c.008.012.67.916 2.824.916.683 0 1.516-.09 2.526-.33l6.48-1.534z"/><path fill="#E29E26" d="M165.68 65.263c-1.916 0-2.679-.852-2.98-1.565l-.196-.46 1.461-.621.195.46c.168.398.68.599 1.52.599 1.226 0 2.716-.448 3.404-.713l.466-.18.572 1.48-.466.18c-.218.085-2.175.82-3.976.82z"/><path fill="#E29E26" d="M164.23 61.962l-.92.39-.541.229-.92.39.39.92c.36.855 1.252 1.872 3.442 1.872 1.893 0 3.929-.766 4.155-.853l.932-.36-.36-.933-.211-.547-.36-.933-.932.359c-.655.253-2.071.68-3.224.68-.57 0-.985-.115-1.06-.293l-.39-.921zm-.53 1.31c.286.676 1.069.904 1.98.904 1.28 0 2.816-.451 3.584-.746l.212.547c-.131.05-2.068.786-3.795.786-1.1 0-2.114-.298-2.522-1.261l.54-.23zm14.07-7.96l11.505-2.724c2.008-.421 3.065-1.148 3.622-1.807l-15.474 3.663-.427-1.81 18.064-4.275.055 1.152c.008.15.125 3.728-5.429 4.89l-11.489 2.72-.428-1.81z"/><path fill="#E29E26" d="M195.53 47.733l-1.17.277-16.993 4.023-.973.23.23.973.198.836.23.973.133-.031.212.899.198.836.231.973.973-.23 11.015-2.608c5.93-1.241 5.81-5.228 5.801-5.397l-.027-.552-.058-1.202zm-.94 1.25l.026.552c.006.134.1 3.302-5.033 4.376l-11.015 2.608-.197-.836 11.02-2.61c3.27-.683 4.224-2.2 4.503-3.042l-16.099 3.81-.198-.835 16.992-4.023z"/><path fill="#E29E26" d="M178.369 58.042l6.966-1.649c3.759-.89 4.139-2.51 4.142-2.527l.095-.45.459.044 1.077.134-.06.494c-.032.272-.46 2.692-5.347 3.85l-6.967 1.648-.365-1.544z"/><path fill="#E29E26" d="M189.119 52.843l-.132.92c-.053.147-.593 1.391-3.767 2.142l-6.48 1.534-.973.231.23.973.136.571.23.973.973-.23 6.48-1.534c5.227-1.237 5.693-3.972 5.729-4.279l.115-.987-.985-.122-.583-.072-.973-.12zm.85 1.113l.583.072c-.011.094-.323 2.323-4.966 3.422l-6.48 1.534-.135-.572 6.479-1.534c4.196-.993 4.516-2.903 4.519-2.922z"/><path fill="#E29E26" d="M179.778 60.362l.498-.049c1.838-.179 4.525-.972 4.452-2.104l-.032-.499 1.584-.103.032.5c.199 3.1-5.26 3.725-5.883 3.786l-.498.05-.153-1.58z"/><path fill="#E29E26" d="M186.747 57.077l-.998.064-.586.038-.998.064.064.998c.034.519-1.844 1.365-4.002 1.575l-.995.097.097.995.056.584.097.995.995-.096c.672-.064 6.564-.736 6.334-4.316l-.064-.998zm-.934 1.062c.173 2.683-5.203 3.235-5.432 3.257l-.057-.584c1.402-.137 5.016-.876 4.903-2.635l.586-.038z"/><path fill="#FCC627" d="M180.995 57.391a7.141 7.141 0 1 1-13.898 3.289 7.141 7.141 0 0 1 13.898-3.289"/><path stroke="#E29E26" stroke-width="3" d="M180.995 57.391a7.141 7.141 0 1 1-13.898 3.289 7.141 7.141 0 0 1 13.898-3.289z"/><path fill="#176395" d="M185.425 183.293a9.256 9.256 0 1 1-9.256-9.256 9.256 9.256 0 0 1 9.256 9.256"/><path fill="#3ABFC8" d="M185.555 180.007s-3.915 9.698-16.676 9.675c-1.354-1.575-1.598-3.677-1.598-3.677s10.022 1.625 15.832-9.466c1.782 1.567 2.442 3.468 2.442 3.468"/></g></svg>