<svg width="79" height="64" viewBox="0 0 79 64" xmlns="http://www.w3.org/2000/svg"><path d="M78.528 7.554c-2.89 1.282-5.994 2.148-9.253 2.537 3.326-1.993 5.88-5.15 7.084-8.912-3.115 1.846-6.562 3.187-10.232 3.91C63.188 1.955 59.002 0 54.368 0c-8.897 0-16.11 7.213-16.11 16.11 0 1.263.142 2.493.416 3.672-13.39-.672-25.26-7.086-33.207-16.833-1.386 2.378-2.18 5.145-2.18 8.098 0 5.59 2.843 10.52 7.166 13.41-2.64-.084-5.125-.81-7.297-2.015-.002.067-.002.134-.002.202 0 7.806 5.554 14.318 12.924 15.798-1.352.368-2.775.565-4.245.565-1.038 0-2.047-.1-3.03-.29 2.05 6.4 8 11.06 15.05 11.19-5.515 4.32-12.46 6.896-20.01 6.896-1.3 0-2.583-.076-3.843-.226 7.13 4.572 15.6 7.24 24.697 7.24 29.633 0 45.838-24.55 45.838-45.84 0-.698-.016-1.393-.047-2.084 3.15-2.27 5.88-5.11 8.04-8.34z" fill="#32A7E0" fill-rule="evenodd"/></svg>