<svg enable-background="new 0 0 32 32" viewBox="0 0 32 32" xmlns="http://www.w3.org/2000/svg"><path fill="#1DA1F3" d="m28 8.557c-.883.392-1.832.656-2.828.775 1.017-.609 1.797-1.574 2.165-2.724-.951.564-2.005.974-3.127 1.195-.898-.957-2.178-1.555-3.594-1.555-2.719 0-4.924 2.205-4.924 4.924 0 .386.044.762.127 1.122-4.092-.205-7.72-2.166-10.149-5.145-.423.727-.666 1.573-.666 2.476 0 1.708.869 3.215 2.19 4.098-.807-.026-1.566-.247-2.23-.616v.062c0 2.386 1.697 4.376 3.95 4.828-.413.113-.848.173-1.298.173-.317 0-.626-.031-.926-.088.627 1.956 2.445 3.38 4.6 3.42-1.685 1.321-3.808 2.108-6.115 2.108-.397 0-.789-.023-1.175-.069 2.179 1.397 4.767 2.212 7.548 2.212 9.057 0 14.009-7.503 14.009-14.01 0-.213-.005-.426-.014-.637.962-.695 1.797-1.562 2.457-2.549z"/></svg>