<svg xmlns="http://www.w3.org/2000/svg" xmlns:xlink="http://www.w3.org/1999/xlink" width="168" height="43"><defs><path id="a" d="M.436 1.375C.436.732.949.19 1.595.19c.653 0 1.16.534 1.16 1.177v.007c0 .642-.514 1.183-1.16 1.183A1.165 1.165 0 0 1 .436 1.381v-.006zm.23.005c0 .522.398.951.929.951.526 0 .93-.435.93-.956v-.007c0-.521-.398-.95-.93-.95-.525 0-.93.435-.93.957v.005zM1.261.74h.42c.286 0 .486.135.486.405a.38.38 0 0 1-.24.372l.18.224c.034.034.04.067.04.108a.14.14 0 0 1-.146.143c-.054 0-.087-.028-.12-.062l-.28-.351h-.193v.263a.15.15 0 0 1-.147.15.15.15 0 0 1-.146-.15V.895a.15.15 0 0 1 .146-.156zm.147.256v.34h.253c.133 0 .206-.068.206-.17 0-.109-.08-.17-.206-.17h-.253z"/></defs><g fill="none" fill-rule="evenodd"><g fill-rule="nonzero"><path fill="#CCEDED" d="M45.314.865c0 .177.1 2.765.234 3.114.108.287 1.012 1.01 1.585 1.01.178 0 .38-.014.384-.151.007-.583-.119-2.173-.118-3.34 0-.308-1.052-1.054-1.757-1.054-.165 0-.328.05-.328.42zM52.18 7.243c0 .615.299 1.212.708 1.35.11.035.947-.787 1.826-1.656.7-.693 1.49-1.409 1.49-1.783 0-.363-1.068-1.16-1.269-1.16-.81-.001-2.755 2.736-2.755 3.249zM57.588 13.283c-.253 0-3.975.23-3.975 2.358 0 .146-.014.545.145.49.635-.222 1.676-.835 3.128-.834.77 0 1.043-.052 1.044-.43 0-.144.01-.542.01-.661 0-.874-.184-.924-.307-.924l-.045.001zM38.364 6.294c0 .297 1.314 1.75 1.368 1.803.301.264 1.569.459 1.95.459.086 0 .148-.029.147-.073.001-.651-1.935-2.448-2.732-2.541-.16 0-.732.117-.733.352z"/><path fill="#F8E71C" d="M47.517 6.996h.072c3.287 0 4.62 3.59 4.655 6.062.09 6.075-4.295 13.371-6.64 13.405-2.906 0-12.427-5.722-12.427-10.878 0-1.395.563-3.934 3.848-3.934 1.205 0 3.044.664 4.746 1.741.161-.941.531-1.923 1.047-2.832 1.12-1.953 2.913-3.538 4.699-3.564zm-1.29 11.983c0 1.049-1.464 2.354-2.244 2.354-2.199 0-2.523-5.748-2.523-5.748s-2.171-1.281-3.093-1.281c-.809 0-1.782.415-1.782 1.864 0 3.04 5.938 8.408 8.014 8.408 1.882-.03 4.548-6.592 4.481-11.166-.026-1.901-.753-3.09-1.846-3.072-1.111.016-2.002.67-2.64 1.49-.707.907-1.137 2.091-1.21 2.754 1.522 1.31 2.844 2.67 2.844 4.397zm-3.003-2.283s.142 2.666 1.475 2.666c.162 0 .227-.14.227-.324 0-.934-.654-1.753-1.702-2.342z"/></g><g fill="#FEE201" fill-rule="nonzero"><path d="M83.098 30.873c1.71 0 2.69-.944 2.69-2.336v-.048c0-1.557-1.048-2.36-2.758-2.36h-3.49v4.744h3.558zm-7.07-6.206c0-1.015.776-1.817 1.757-1.817h5.54c2.031 0 3.604.59 4.653 1.675.89.92 1.369 2.219 1.369 3.776v.047c0 2.596-1.255 4.2-3.193 5.026l2.44 3.068c.342.449.57.826.57 1.393A1.66 1.66 0 0 1 87.5 39.51c-.798 0-1.323-.401-1.733-.944l-3.42-4.483H79.54v3.61c0 1.015-.776 1.817-1.756 1.817-.981 0-1.757-.802-1.757-1.817V24.667zM99.416 32.053c-.206-1.604-1.118-2.69-2.577-2.69-1.437 0-2.372 1.062-2.646 2.69h5.223zm-2.235 7.599c-3.672 0-6.385-2.667-6.385-6.537v-.047c0-3.61 2.485-6.584 6.043-6.584 4.082 0 5.884 3.469 5.884 6.088 0 1.038-.707 1.723-1.62 1.723H94.24c.342 1.628 1.437 2.478 2.988 2.478.958 0 1.756-.307 2.463-.85.25-.189.478-.283.843-.283.776 0 1.346.614 1.346 1.416 0 .472-.205.826-.456 1.062-1.072.943-2.463 1.534-4.242 1.534zM106.498 38l-2.988-8.92c-.068-.213-.16-.567-.16-.873 0-.826.639-1.629 1.666-1.629.866 0 1.436.567 1.687 1.392l1.87 6.42 1.915-6.396c.252-.85.89-1.439 1.78-1.439h.205c.889 0 1.528.59 1.778 1.44l1.938 6.418 1.916-6.466c.229-.755.753-1.369 1.665-1.369.958 0 1.62.756 1.62 1.652 0 .236-.07.566-.114.732L118.196 38c-.364 1.109-1.071 1.605-1.915 1.605h-.114c-.844 0-1.55-.496-1.87-1.534l-1.938-6.372-1.962 6.372c-.32 1.038-1.026 1.534-1.87 1.534h-.114c-.844 0-1.55-.496-1.915-1.605M129.858 34.909v-.637c-.592-.284-1.368-.473-2.212-.473-1.482 0-2.395.614-2.395 1.746v.048c0 .967.776 1.534 1.894 1.534 1.618 0 2.713-.92 2.713-2.218m-7.959.825v-.047c0-2.76 2.03-4.035 4.926-4.035 1.231 0 2.12.212 2.987.52v-.213c0-1.487-.889-2.313-2.622-2.313-.958 0-1.733.142-2.395.354-.205.07-.342.094-.501.094-.799 0-1.437-.636-1.437-1.463 0-.637.388-1.18.935-1.392 1.095-.425 2.28-.66 3.9-.66 1.892 0 3.26.518 4.127 1.415.913.944 1.323 2.337 1.323 4.036v5.757c0 .968-.752 1.723-1.688 1.723-1.003 0-1.664-.731-1.664-1.486V38c-.844.968-2.007 1.605-3.695 1.605-2.303 0-4.196-1.37-4.196-3.87M135.496 28.372c0-.991.775-1.794 1.733-1.794.958 0 1.734.803 1.734 1.794v.566c.501-1.227 1.322-2.36 2.348-2.36 1.072 0 1.688.732 1.688 1.747 0 .944-.593 1.51-1.3 1.675-1.756.425-2.736 1.817-2.736 4.366v3.35c0 .992-.776 1.794-1.734 1.794s-1.733-.802-1.733-1.793v-9.345zM146.893 33.02v.048c0 2.1 1.368 3.492 2.987 3.492 1.62 0 2.965-1.392 2.965-3.492v-.047c0-2.1-1.346-3.493-2.965-3.493-1.619 0-2.987 1.369-2.987 3.493zm9.372 4.697c0 .99-.775 1.793-1.733 1.793-.958 0-1.733-.802-1.733-1.793v-.166c-.844 1.18-2.007 2.054-3.808 2.054-2.851 0-5.565-2.313-5.565-6.537v-.047c0-4.224 2.668-6.537 5.565-6.537 1.847 0 2.987.873 3.808 1.888v-4.578c0-.991.775-1.794 1.733-1.794.958 0 1.733.803 1.733 1.794v13.923zM158.526 38.165a1.44 1.44 0 0 1-.661-1.227c0-.803.592-1.416 1.368-1.416.251 0 .502.071.684.19 1.163.754 2.326 1.132 3.307 1.132 1.003 0 1.46-.378 1.46-.944v-.048c0-.778-1.186-1.038-2.532-1.462-1.71-.52-3.649-1.346-3.649-3.8v-.047c0-2.573 2.007-4.012 4.47-4.012 1.277 0 2.6.354 3.786.968.501.26.82.731.82 1.344 0 .803-.615 1.417-1.39 1.417-.251 0-.41-.048-.639-.166-.98-.495-1.915-.802-2.646-.802-.843 0-1.276.378-1.276.873v.047c0 .709 1.163 1.039 2.486 1.51 1.71.59 3.694 1.44 3.694 3.753v.047c0 2.808-2.03 4.083-4.675 4.083-1.505 0-3.125-.45-4.607-1.44"/></g><g transform="translate(70.408 37.231)"><mask id="b" fill="#fff"><use xlink:href="#a"/></mask><path fill="#FFF" fill-rule="nonzero" d="M-1.75 4.78h6.69v-6.81h-6.69z" mask="url(#b)"/></g><path fill="#FFF" fill-rule="nonzero" d="M49.836 28.92c-1.295.185-1.491 2.192-1.496 2.776l2.907-1.012c-.025-.443-.295-1.764-1.411-1.764m-4.481 4.73c0-6.796 3.727-7.346 4.6-7.346 2.797 0 4.052 2.784 4.052 4.705 0 .808-.205 1.197-1.435 1.709l-4.162 1.499c0 1.353.504 1.537 1.124 1.537 1.428 0 2.81-1.858 3.61-1.858.429 0 .865.724.865 1.173 0 1.535-2.46 3.445-4.927 3.445-2.114 0-3.727-1.817-3.727-4.865M69.806 36.283c0-3.385-4.477-4.826-4.477-6.557 0-.401.25-.876.877-.876 1.504 0 1.091 1.867 2.251 1.867.624 0 1.698-.323 1.698-.996 0-2.201-2.29-3.571-4.032-3.571-1.476 0-3.602.72-3.693 3.332-.13 3.891 4.306 5.053 4.306 6.598 0 .751-.601.878-1.174.878-1.77 0-2.582-2.012-3.407-2.012-.553 0-1.183.878-1.183 1.756 0 1.274 2.24 3.066 4.786 3.066 2.116 0 4.048-1.266 4.048-3.485M22.36 38.55c0 .47-.214.685-.848.67-1.705-.046-2.469-1.397-2.469-2.901v-8.098c0-1.268 1.266-1.873 2.035-1.885.682-.002.883.464.883 1.365v.65c.814-1.082 2.053-1.437 2.817-1.437 1.738 0 2.74.986 3.001 1.61.994-1.32 1.977-1.61 2.958-1.61 3.539 0 3.63 3.351 3.63 4.24v6.972c0 .56-.316.663-1.096.663-1.792 0-2.218-1.143-2.218-2.794l-.004-4.416c0-.79-.227-1.527-1.09-1.527-.842 0-1.634.395-1.634 1.628v5.725c0 .649-.567.89-1.07.89-1.887 0-2.148-1.487-2.148-2.427v-4.226c0-1.067-.353-1.59-1.208-1.59-.921 0-1.553.714-1.553 1.744l.014 6.754M12.327 36.276c-.687 0-.909-.588-.909-1.207 0-1.917 2.43-2.352 3.462-2.352l.079.001c0 2.84-1.743 3.558-2.632 3.558m1.685-9.968c-1.795 0-1.996.931-2.023 1.398-.027.473.296 1.304.88 1.265.08-.004.322-.01.357-.01.854-.004 1.775.193 1.766 1.092 0 .15-.014.494-.014.494S8.19 30.398 8.19 35.12c0 1.787 1.29 3.718 3.394 3.718 1.411 0 2.796-1.012 3.347-2.376-.082.197-.11.598-.11.763 0 1.44.953 1.706 2.333 1.706.54 0 .649-.313.649-.938v-7.473c-.105-3.553-2.21-4.213-3.792-4.213M38.3 31.482c0-1.501.309-2.355 1.56-2.461 1.005-.08 1.93.647 1.93 1.868 0 2.667-1.148 4.375-3.49 4.535v-3.942zm1.356-5.403c-2.5.013-4.142 1.292-4.142 5.45v9.604c0 1.162.282 1.872 1.674 1.872.78 0 1.1-.093 1.1-.593v-4.237c.957-.155 6.261-.907 6.261-7.463 0-1.592-.934-4.633-4.893-4.633z"/><path fill="#FFF" fill-rule="nonzero" d="M6.177 20.674c1.116 0 2.427.759 2.427 3.132 0 2.678-1.633 4.572-4.996 5.29a26.8 26.8 0 0 1-.223-3.338c0-3.44 1.014-5.084 2.792-5.084M0 25.476c0 4.456.745 10.614 1.04 12.39.27 1.605.565 2.482 2.336 2.482.99 0 1.405-.115 1.405-.752l-.916-7.425c1.214-.201 7.969-1.12 7.969-8.981 0-2.324-1.243-5.807-5.417-5.807C3.116 17.383 0 19.46 0 25.476M58.11 28.202c0-.598-.01-.968-.01-.968 0-.538-.348-.81-.94-.805-.82.014-1.955.557-1.955 1.788v8.42c0 1.685.58 2.309 2.34 2.309 0 0 .881-.083.881-.58l-.013-6.746c0-1.132 1.689-1.933 2.85-2.352.386-.133.535-.513.535-.84 0-.77-.196-1.804-1.05-1.804-.488 0-1.36.216-2.639 1.578"/></g></svg>