<svg viewBox="0 0 48 48" xmlns="http://www.w3.org/2000/svg"><path d="M3.016 19.721l8.191 18.246 32.768-14.71-8.191-18.246z" fill="#81c784"/><path d="M3.016 19.721l8.191 18.246 32.768-14.71-8.191-18.246zm9.192 15.604L5.655 20.728 34.782 7.653l6.553 14.597z" fill="#1b5e20"/><ellipse cx="33.508" cy="17" fill="#1b5e20" rx="1.996" ry="2" transform="rotate(-24.179 33.505 17)"/><ellipse cx="23.495" cy="21.489" fill="#1b5e20" rx="5.986" ry="6" transform="rotate(-24.175 23.497 21.491)"/><ellipse cx="6.315" cy="20.98" fill="#1b5e20" rx="2.494" ry="2.5" transform="rotate(-24.175 6.316 20.982)"/><ellipse cx="34.532" cy="8.314" fill="#1b5e20" rx="2.494" ry="2.5" transform="rotate(-24.175 34.535 8.315)"/><ellipse cx="40.675" cy="21.997" fill="#1b5e20" rx="2.494" ry="2.5" transform="rotate(-24.175 40.678 22)"/><path d="M8 23h36v20H8z" fill="#a5d6a7"/><g fill="#388e3c"><path d="M8 23v20h36V23zm2 18V25h32v16z"/><circle cx="15" cy="33" r="2"/><circle cx="37" cy="33" r="2"/><circle cx="26" cy="33" r="6"/><path d="M43 38.511A2.476 2.476 0 0 0 41.5 38a2.5 2.5 0 0 0-2.5 2.5c0 .566.195 1.082.512 1.501H43zm-32.5-.512c-.565 0-1.081.195-1.5.511V42h3.488c.317-.419.512-.935.512-1.501a2.5 2.5 0 0 0-2.5-2.5zM9 27.489c.419.316.935.511 1.5.511a2.5 2.5 0 0 0 2.5-2.5c0-.565-.195-1.081-.511-1.5H9zM41.5 28c.565 0 1.081-.195 1.5-.511V24h-3.489A2.482 2.482 0 0 0 39 25.5a2.5 2.5 0 0 0 2.5 2.5z"/></g></svg>