<svg viewBox="0 0 48 48" xmlns="http://www.w3.org/2000/svg"><path d="M12.76 24c-.158 0-.317-.023-.475-.078l-6.26-1.998a1.5 1.5 0 0 1 .95-2.845L12 20.666l3.158-6.835a1.505 1.505 0 0 1 1.155-.818l8-1a1.49 1.49 0 0 1 1.247.43l4.031 4.031 3.948-4.125a1.499 1.499 0 1 1 1.92 2.304l-5 5a1.498 1.498 0 0 1-2.021-.09L23 15l-6 3-2.898 5.172c-.26.519-.788.828-1.342.828z" fill="#ffb74d"/><path d="M24.313 12.012l-8 1a1.506 1.506 0 0 0-1.155.818l-1.304 2.822L17 18l8-1 2.363-2.756-1.802-1.802a1.49 1.49 0 0 0-1.248-.43z" fill="#ba68c8"/><path d="M21 31c-2.209 0-4 .208-4-2V15c0-2.21 1.791-1 4-1s4-1.21 4 1v13.063C25 30.271 23.209 31 21 31z" fill="#ba68c8"/><path d="M19 3a4 4 0 1 1 0 8 4 4 0 0 1 0-8" fill="#ffb74d"/><path d="M37 20c-1 0-1 1-1 1v6.27s2 2.906 2 1.773v-5.375c0-.486.322-.648.644-.648 2.356 0 3.276 1.988 3.276 1.988S43 20 37 20z" fill="#ff754c"/><ellipse cx="35.521" cy="28.98" fill="#ff754c" rx="2.5" ry="2.002"/><path d="M29.267 41.838l-5.194-6.377.846-6.637.001-.011.068-.53c.004-.034-.001-.076.001-.112.001-.038.011-.069.011-.108V27h-8v-.008l-2.882 8.035a2.008 2.008 0 0 0-.125 1.676l3 8a2.004 2.004 0 0 0 2.575 1.17 2.001 2.001 0 0 0 1.171-2.576l-2.676-7.133L20 32l.013 3.779c-.055.49.073.982.359 1.383l5.639 7a2 2 0 0 0 3.256-2.324z" fill="#d2ccc9"/><path d="M20 30l-3-3.008-2.882 8.035a2.008 2.008 0 0 0-.125 1.676l3 8a2.004 2.004 0 0 0 2.575 1.17 2.001 2.001 0 0 0 1.171-2.576l-2.676-7.133L20 32z" fill="#b2aead"/><path d="M17 18l2 1v8h-2z" fill="#ab47bc"/></svg>