<svg viewBox="0 0 48 48" xmlns="http://www.w3.org/2000/svg"><g fill="#ffc107"><path d="M22.02 4h3.996v25H22.02z"/><path d="M16.646 5.293l3.985-.292 1.832 24.932-3.985.293z"/><path d="M11.4 8.63l3.947-.627 3.927 24.689-3.947.628zm18.597 22.597l-3.984-.292 1.832-24.933 3.984.293z"/><path d="M33.081 32l-3.946-.627 3.927-24.69 3.947.628zM5.998 10.668l3.883-.943 5.902 24.29-3.883.944zM38.067 11l3.936.695-4.342 24.619-3.937-.694z"/></g><path d="M18.066 10.19l3.984-.307 1.925 24.925-3.984.307z" fill="#ffee58"/><path d="M25.149 10.771l3.98.338-2.115 24.91-3.98-.338zm6.407 27.415l-3.861-1.034L34.142 13l3.861 1.033zm-10.528-.036l-3.86 1.034-6.464-24.149 3.86-1.033z" fill="#ffee58"/><path d="M35.826 18c-.953 5.673-5.87 10-11.809 10s-10.855-4.327-11.809-10H7.035l4.995 26s6.993-1 11.988-1 11.987 1 11.987 1l4.996-26z" fill="#f44336"/><g fill="#c62828"><path d="M40.425 21l.576-3h-5.175a11.921 11.921 0 0 1-.923 3zm-27.293 0a11.962 11.962 0 0 1-.923-3H7.035l.576 3z"/><path d="M35.82 18c-.954 5.673-5.876 10-11.82 10s-10.866-4.327-11.82-10H9.15c.982 7.327 7.259 13 14.85 13 7.592 0 13.868-5.673 14.851-13z"/></g></svg>