<svg viewBox="0 0 48 48" xmlns="http://www.w3.org/2000/svg"><circle cx="16" cy="19.999" fill="#ffb300" r="8"/><circle cx="17" cy="33.999" fill="#ffb300" r="8"/><path d="M38 25.872c0-6.167-3.777-4.743-3.777-18.025h-9.445C24.778 21.129 21 19.705 21 25.872v14.706A1.42 1.42 0 0 0 22.417 42h14.167A1.42 1.42 0 0 0 38 40.578z" fill="#90caf9"/><path d="M35 7.501C35 8.329 34.384 9 33.625 9h-8.25C24.616 9 24 8.329 24 7.501v-1C24 5.673 24.616 5 25.375 5h8.25C34.384 5 35 5.673 35 6.501z" fill="#9c27b0"/><path d="M36.111 38.68a.473.473 0 0 1-.473.475H23.361a.474.474 0 0 1-.473-.475V25.872c0-2.052.462-2.984 1.161-4.396.631-1.272 1.341-2.72 1.865-5.092h7.172c.523 2.372 1.234 3.819 1.865 5.092.698 1.411 1.16 2.344 1.16 4.396z" fill="#fafafa"/><path d="M8 26.001L10 42h28l2-15.999zM15 39h-2v-4h2zm0-6h-2v-4h2zm5 6h-2v-4h2zm0-6h-2v-4h2zm5 6h-2v-4h2zm0-6h-2v-4h2zm5 6h-2v-4h2zm0-6h-2v-4h2zm5 6h-2v-4h2zm0-6h-2v-4h2z" fill="#e91e63"/><path d="M41.494 24a1 1 0 0 0-1-1H7.506a1 1 0 0 0-1 1v2.001a1 1 0 0 0 1 1h32.988a1 1 0 0 0 1-1z" fill="#ad1457"/><path d="M16 15.53s-1-6.529-9-5.529c2 7 9 5.529 9 5.529z" fill="#4caf50"/></svg>