<svg height="48" width="48" xmlns="http://www.w3.org/2000/svg"><g fill="#e69329"><path d="M14 19.001h6v8h-6z"/><path d="M19 25h5v8.5a2.5 2.5 0 1 1-5 0zM24 24h5v8.5a2.5 2.5 0 1 1-5 0zM29 22h5v8.5a2.5 2.5 0 1 1-5 0z"/></g><path d="M17 26a3 3 0 0 0 3 3h19a3 3 0 0 0 3-3V14a3 3 0 0 0-3-3H20a3 3 0 0 0-3 3z" fill="#64b5f6"/><path d="M17 15h25v4H17z" fill="#37474f"/><path d="M19 20h21v4H19z" fill="#e3f2fd"/><path d="M27.967 21.784c1.096 1.356.582 3.105-.558 4.145L18 34c-.569.521-3.294 1-3.916 1H6l7.304-10.413L18 25l5.225-3.377c1.838-1.42 3.603-1.201 4.742.161" fill="#ffb74d"/><path d="M17 20.562V13c-.73 0-1.463-.001-1.951.244L6 21v14c16-1 9-9 9-9z" fill="#ffb74d"/><path d="M26.811 24.854a1.812 1.812 0 0 0-.023-2.559 1.812 1.812 0 0 0-2.559.024c-.701.713 1.881 3.248 2.582 2.535" fill="#ffcdd2"/></svg>