<svg viewBox="0 0 48 48" xmlns="http://www.w3.org/2000/svg"><path d="M38 44V28c0-7.732-6.268-14-14-14s-14 6.268-14 14v16z" fill="#ffcc80"/><path d="M15 17a63.21 63.21 0 0 1 1.54 5.405c.472 1.806.837 3.621 1.2 5.437l-.048-.24.055.398c.267 1.924 1 3.665 2.11 4.811 1.11 1.145 2.498 1.701 4.143 1.69 1.644.007 3.03-.55 4.139-1.693 1.105-1.146 1.841-2.885 2.107-4.808l.057-.412-.05.253c.357-1.815.74-3.63 1.191-5.437.453-1.807.947-3.611 1.556-5.404.276 1.873.437 3.736.556 5.596.118 1.859.167 3.713.191 5.563l.007-.159c.268 2.553-.263 5.408-2.034 7.759a9.217 9.217 0 0 1-3.432 2.8c-1.349.654-2.883.93-4.288.94-1.426-.017-2.928-.284-4.286-.943a9.212 9.212 0 0 1-3.43-2.8c-1.767-2.352-2.299-5.204-2.031-7.756l.007.158c.03-1.852.063-3.703.2-5.563.103-1.859.269-3.722.54-5.595z" fill="#f2a25a"/><path d="M33 28a9 9 0 0 1-9 9 9 9 0 0 1-9-9V8s0-4 4-4h10c4 0 4 4 4 4z" fill="#f50057"/><path d="M30 30V4.105A5 5 0 0 0 29 4h-4v29.941C26.913 33.729 29 32 30 30z" fill="#ff80ab"/></svg>