<svg viewBox="0 0 48 48" xmlns="http://www.w3.org/2000/svg"><path d="M16 36a1 1 0 0 0-1-1h-4a1 1 0 0 0-1 1v6a1 1 0 0 0 1 1h4a1 1 0 0 0 1-1zm22 0a1 1 0 0 0-1-1h-4a1 1 0 0 0-1 1v6a1 1 0 0 0 1 1h4a1 1 0 0 0 1-1z" fill="#455a64"/><g fill="#ffc107"><path d="M37.5 4h-27A2.5 2.5 0 0 0 8 6.5V37s0 2 2 2h28c2 0 2-2 2-2V6.5A2.5 2.5 0 0 0 37.5 4z"/><path d="M10 22.499a1.5 1.5 0 0 1-1.5 1.5h-1a1.5 1.5 0 0 1-1.5-1.5V19.5A1.5 1.5 0 0 1 7.5 18h1a1.5 1.5 0 0 1 1.5 1.5zm32 0a1.5 1.5 0 0 1-1.5 1.5h-1a1.5 1.5 0 0 1-1.5-1.5V19.5a1.5 1.5 0 0 1 1.5-1.5h1a1.5 1.5 0 0 1 1.5 1.5z"/></g><circle cx="13.5" cy="32.5" fill="#fff8e1" r="2.5"/><circle cx="34.5" cy="32.5" fill="#fff8e1" r="2.5"/><path d="M36.5 6h-25A1.5 1.5 0 0 0 10 7.5v16a2.5 2.5 0 0 0 2.5 2.5h23a2.5 2.5 0 0 0 2.5-2.5v-16A1.5 1.5 0 0 0 36.5 6z" fill="#9fa8da"/><path d="M38 12H10V7.5A1.5 1.5 0 0 1 11.5 6h25A1.5 1.5 0 0 1 38 7.5z" fill="#263238"/><path d="M12 8h11v2H12zm13 0h4v2h-4z" fill="#64dd17"/><path d="M21 26h-8v-7.5a1.5 1.5 0 0 1 1.5-1.5h5a1.5 1.5 0 0 1 1.5 1.5zm14 0h-8v-7.5a1.5 1.5 0 0 1 1.5-1.5h5a1.5 1.5 0 0 1 1.5 1.5z" fill="#7986cb"/><path d="M28.43 26c-.266-.297-.43-.637-.43-1 0-1.084 1.374-2 3-2s3 .916 3 2c0 .363-.164.703-.43 1h2.252c.105-.321.178-.652.178-1 0-2.206-2.243-4-5-4s-5 1.794-5 4c0 .348.073.679.178 1z" fill="#3949ab"/></svg>